<?xml version="1.0" encoding="utf-8"?>
<!-- Generator: Adobe Illustrator 24.0.3, SVG Export Plug-In . SVG Version: 6.00 Build 0)  -->
<svg version="1.1" id="Ebene_1" xmlns="http://www.w3.org/2000/svg" xmlns:xlink="http://www.w3.org/1999/xlink" x="0px" y="0px"
	 viewBox="0 0 156.9 156.8" style="enable-background:new 0 0 156.9 156.8;" xml:space="preserve">
<style type="text/css">
	.st0{enable-background:new    ;}
</style>
<g id="Icon_546_">
	<path class="st0" d="M141.3,39.3H126V0H28.2v39.3H15.6C7,39.3,0,46.3,0,54.9v57.9c0,8.6,7,15.6,15.6,15.6h11.5v28.3h102.7v-28.3
		h11.5c8.6,0,15.6-7,15.6-15.6V54.9C156.9,46.3,149.9,39.3,141.3,39.3z M37.2,9H117v30.3H37.2V9z M120.8,147.8H36.1V88.4h84.7V147.8
		z M147.9,112.8c0,3.6-3,6.6-6.6,6.6h-11.5V79.4H27.1v40.1H15.6c-3.6,0-6.6-3-6.6-6.6V54.9c0-3.6,3-6.6,6.6-6.6h125.7
		c3.6,0,6.6,3,6.6,6.6V112.8z"/>
	<rect x="115.1" y="57.1" class="st0" width="19.1" height="10.5"/>
	<rect x="47.7" y="104.5" class="st0" width="61.6" height="8"/>
	<rect x="47.7" y="123.7" class="st0" width="61.6" height="8"/>
</g>
</svg>
