<?xml version="1.0" encoding="UTF-8"?>
<svg width="17px" height="11px" viewBox="0 0 17 11" version="1.1" xmlns="http://www.w3.org/2000/svg" xmlns:xlink="http://www.w3.org/1999/xlink">
    <!-- Generator: Sketch 56.3 (81716) - https://sketch.com -->
    <title>icon-arrow-down</title>
    <desc>Created with Sketch.</desc>
    <g id="Seite-mit-FOM-Korrekturen" stroke="none" stroke-width="1" fill="none" fill-rule="evenodd">
        <g id="FOM-Projekt-Medizintechnik-FOM-ENG" transform="translate(-90.000000, -1424.000000)" fill="#0064A5" fill-rule="nonzero">
            <path d="M106.396784,1426.05356 C106.396784,1426.18302 106.332052,1426.32867 106.234954,1426.42577 L98.6936499,1433.96707 C98.5965516,1434.06417 98.4509041,1434.1289 98.3214397,1434.1289 C98.1919752,1434.1289 98.0463277,1434.06417 97.9492294,1433.96707 L90.4079258,1426.42577 C90.3108275,1426.32867 90.2460952,1426.18302 90.2460952,1426.05356 C90.2460952,1425.92409 90.3108275,1425.77844 90.4079258,1425.68135 L91.2170785,1424.87219 C91.3141769,1424.77509 91.4436413,1424.71036 91.5892888,1424.71036 C91.7187532,1424.71036 91.8644007,1424.77509 91.9614991,1424.87219 L98.3214397,1431.23213 L104.68138,1424.87219 C104.778479,1424.77509 104.924126,1424.71036 105.053591,1424.71036 C105.183055,1424.71036 105.328703,1424.77509 105.425801,1424.87219 L106.234954,1425.68135 C106.332052,1425.77844 106.396784,1425.92409 106.396784,1426.05356 Z" id="icon-arrow-down"></path>
        </g>
    </g>
</svg>