<?xml version="1.0" encoding="UTF-8"?>
<svg width="10px" height="17px" viewBox="0 0 10 17" version="1.1" xmlns="http://www.w3.org/2000/svg" xmlns:xlink="http://www.w3.org/1999/xlink">
    <!-- Generator: Sketch 56.3 (81716) - https://sketch.com -->
    <title>icon-arrow-left</title>
    <desc>Created with Sketch.</desc>
    <g id="Seite-mit-FOM-Korrekturen" stroke="none" stroke-width="1" fill="none" fill-rule="evenodd">
        <g id="FOM-Projekt-Medizintechnik-FOM-ENG" transform="translate(-156.000000, -1440.000000)" fill="#575756" fill-rule="nonzero">
            <path d="M168.795508,1444.69837 C168.795508,1444.82784 168.730775,1444.97349 168.633677,1445.07059 L161.092373,1452.61189 C160.995275,1452.70899 160.849628,1452.77372 160.720163,1452.77372 C160.590699,1452.77372 160.445051,1452.70899 160.347953,1452.61189 L152.806649,1445.07059 C152.709551,1444.97349 152.644819,1444.82784 152.644819,1444.69837 C152.644819,1444.56891 152.709551,1444.42326 152.806649,1444.32616 L153.615802,1443.51701 C153.7129,1443.41991 153.842365,1443.35518 153.988012,1443.35518 C154.117477,1443.35518 154.263124,1443.41991 154.360223,1443.51701 L160.720163,1449.87695 L167.080104,1443.51701 C167.177202,1443.41991 167.32285,1443.35518 167.452314,1443.35518 C167.581779,1443.35518 167.727426,1443.41991 167.824524,1443.51701 L168.633677,1444.32616 C168.730775,1444.42326 168.795508,1444.56891 168.795508,1444.69837 Z" id="icon-arrow-left" transform="translate(160.720163, 1448.064450) rotate(-270.000000) translate(-160.720163, -1448.064450) "></path>
        </g>
    </g>
</svg>