<?xml version="1.0" encoding="UTF-8"?>
<svg width="17px" height="10px" viewBox="0 0 17 10" version="1.1" xmlns="http://www.w3.org/2000/svg" xmlns:xlink="http://www.w3.org/1999/xlink">
    <!-- Generator: Sketch 56.3 (81716) - https://sketch.com -->
    <title>icon-arrow-up</title>
    <desc>Created with Sketch.</desc>
    <g id="Seite-mit-FOM-Korrekturen" stroke="none" stroke-width="1" fill="none" fill-rule="evenodd">
        <g id="FOM-Projekt-Medizintechnik-FOM-ENG" transform="translate(-90.000000, -1462.000000)" fill="#000000" fill-rule="nonzero">
            <path d="M106.396784,1463.34319 C106.396784,1463.47266 106.332052,1463.61831 106.234954,1463.7154 L98.6936499,1471.25671 C98.5965516,1471.35381 98.4509041,1471.41854 98.3214397,1471.41854 C98.1919752,1471.41854 98.0463277,1471.35381 97.9492294,1471.25671 L90.4079258,1463.7154 C90.3108275,1463.61831 90.2460952,1463.47266 90.2460952,1463.34319 C90.2460952,1463.21373 90.3108275,1463.06808 90.4079258,1462.97098 L91.2170785,1462.16183 C91.3141769,1462.06473 91.4436413,1462 91.5892888,1462 C91.7187532,1462 91.8644007,1462.06473 91.9614991,1462.16183 L98.3214397,1468.52177 L104.68138,1462.16183 C104.778479,1462.06473 104.924126,1462 105.053591,1462 C105.183055,1462 105.328703,1462.06473 105.425801,1462.16183 L106.234954,1462.97098 C106.332052,1463.06808 106.396784,1463.21373 106.396784,1463.34319 Z" id="icon-arrow-up" transform="translate(98.321440, 1466.709269) rotate(-180.000000) translate(-98.321440, -1466.709269) "></path>
        </g>
    </g>
</svg>