<?xml version="1.0" encoding="UTF-8"?>
<svg width="11px" height="17px" viewBox="0 0 11 17" version="1.1" xmlns="http://www.w3.org/2000/svg" xmlns:xlink="http://www.w3.org/1999/xlink">
    <!-- Generator: Sketch 56.3 (81716) - https://sketch.com -->
    <title>icon-arrow-right</title>
    <desc>Created with Sketch.</desc>
    <g id="Seite-mit-FOM-Korrekturen" stroke="none" stroke-width="1" fill="none" fill-rule="evenodd">
        <g id="FOM-Projekt-Medizintechnik-FOM-ENG" transform="translate(-118.000000, -1440.000000)" fill="#575756" fill-rule="nonzero">
            <path d="M131.50587,1444.69837 C131.50587,1444.82784 131.441138,1444.97349 131.34404,1445.07059 L123.802736,1452.61189 C123.705638,1452.70899 123.55999,1452.77372 123.430526,1452.77372 C123.301061,1452.77372 123.155414,1452.70899 123.058315,1452.61189 L115.517012,1445.07059 C115.419913,1444.97349 115.355181,1444.82784 115.355181,1444.69837 C115.355181,1444.56891 115.419913,1444.42326 115.517012,1444.32616 L116.326165,1443.51701 C116.423263,1443.41991 116.552727,1443.35518 116.698375,1443.35518 C116.827839,1443.35518 116.973487,1443.41991 117.070585,1443.51701 L123.430526,1449.87695 L129.790466,1443.51701 C129.887565,1443.41991 130.033212,1443.35518 130.162677,1443.35518 C130.292141,1443.35518 130.437788,1443.41991 130.534887,1443.51701 L131.34404,1444.32616 C131.441138,1444.42326 131.50587,1444.56891 131.50587,1444.69837 Z" id="icon-arrow-right" transform="translate(123.430526, 1448.064450) rotate(-90.000000) translate(-123.430526, -1448.064450) "></path>
        </g>
    </g>
</svg>