<?xml version="1.0" encoding="utf-8"?>
<!-- Generator: Adobe Illustrator 18.1.1, SVG Export Plug-In . SVG Version: 6.00 Build 0)  -->
<!DOCTYPE svg PUBLIC "-//W3C//DTD SVG 1.1//EN" "http://www.w3.org/Graphics/SVG/1.1/DTD/svg11.dtd">
<svg version="1.1" id="Ebene_1" xmlns="http://www.w3.org/2000/svg" xmlns:xlink="http://www.w3.org/1999/xlink" x="0px" y="0px"
	 viewBox="0 0 221 56" enable-background="new 0 0 221 56" xml:space="preserve">
<g>
	<path fill="#E30613" d="M13.1,14.7v38.4h13.2v-7.3c0,0-3.1,0-5.8,0c0-4.9,0-19,0-23.9c2.8,0,5.8,0,5.8,0v-7.3L13.1,14.7L13.1,14.7z
		"/>
	<path fill="#FFCC00" d="M0.5,5.9v5.2c0,0,1.3,0,2.7,0c0,3.8,0,18.8,0,22.6c-1.3,0-2.7,0-2.7,0V39h8v-33H0.5z"/>
	<g>
		<path fill="#0064A5" d="M35.5,0.5h14.7v4.1h-8.8v4.7h8.5v4.1h-8.5V22h-5.8L35.5,0.5L35.5,0.5z"/>
		<path fill="#0064A5" d="M51.1,17h5.3v5h-5.3V17z"/>
		<path fill="#0064A5" d="M72.6,0.1c7.2,0,11,4.2,11,11.1c0,6.8-3.8,11.1-11,11.1s-11-4.3-11-11.1C61.6,4.3,65.4,0.1,72.6,0.1z
			 M72.6,18.1c3.6,0,5-3.3,5-6.9c0-3.7-1.4-6.9-5-6.9c-3.5,0-5,3.1-5,6.9C67.7,14.8,69.1,18.1,72.6,18.1z"/>
		<path fill="#0064A5" d="M85.8,17h5.3v5h-5.3V17z"/>
		<path fill="#0064A5" d="M97,0.5h9.2l4.7,14.3h0.1l4.9-14.3h8.9V22h-5.7L119,5.5H119L113.4,22H108l-5.3-16.5h-0.1l0.1,16.5H97
			L97,0.5L97,0.5z"/>
		<path fill="#0064A5" d="M128.7,17h5.3v5h-5.3V17z"/>
		<path fill="#1D1D1B" d="M34.6,28.6h4.1v1h-2.9v2.9h2.8v1h-2.8v4.2h-1.2V28.6z"/>
		<path fill="#1D1D1B" d="M41.9,30.9c1.8,0,2.7,1.3,2.7,3.4c0,2.1-0.9,3.4-2.7,3.4s-2.7-1.3-2.7-3.4C39.2,32.2,40.1,30.9,41.9,30.9z
			 M41.9,36.8c1,0,1.5-0.8,1.5-2.5c0-1.6-0.5-2.5-1.5-2.5c-1,0-1.5,0.8-1.5,2.5C40.3,35.9,40.8,36.8,41.9,36.8z"/>
		<path fill="#1D1D1B" d="M45.8,32.4c0-0.5,0-1-0.1-1.4h1.1l0,1h0c0.4-0.8,0.9-1.1,1.9-1.1V32c-0.1,0-0.3,0-0.4,0
			c-0.8,0-1.5,0.7-1.5,2.1v3.5h-1.1L45.8,32.4L45.8,32.4z"/>
		<path fill="#1D1D1B" d="M49.4,36.3c0.5,0.3,1,0.5,1.6,0.5c0.8,0,1.3-0.4,1.3-0.9c0-0.4-0.2-0.8-0.9-1l-0.7-0.3
			c-1-0.4-1.3-0.8-1.3-1.7c0-1.1,0.9-1.9,2.1-1.9c0.5,0,1,0.1,1.4,0.2l-0.1,0.9c-0.3-0.2-0.8-0.3-1.3-0.3c-0.7,0-1.1,0.4-1.1,0.9
			c0,0.5,0.4,0.8,1.1,1.1l0.4,0.2c0.8,0.3,1.3,0.9,1.3,1.7c0,1.1-0.6,2-2.1,2c-0.7,0-1.3-0.1-1.8-0.4L49.4,36.3z"/>
		<path fill="#1D1D1B" d="M58.5,32.1c-0.4-0.2-0.8-0.3-1.3-0.3c-1.1,0-1.8,0.7-1.8,2.5c0,1.5,0.7,2.4,1.8,2.4c0.5,0,1-0.2,1.3-0.3
			l0.1,1c-0.3,0.1-0.9,0.3-1.4,0.3c-2,0-3-1.5-3-3.3c0-2.1,1.1-3.4,3-3.4c0.5,0,1,0.1,1.3,0.3L58.5,32.1z"/>
		<path fill="#1D1D1B" d="M59.6,27.9h1.1v4h0c0.3-0.6,0.9-1,1.6-1c1.2,0,2,0.7,2,2.1v4.5h-1.1v-4.2c0-1-0.4-1.5-1.1-1.5
			c-0.9,0-1.4,0.6-1.4,1.8v3.9h-1.1L59.6,27.9L59.6,27.9z"/>
		<path fill="#1D1D1B" d="M70.7,36.1c0,0.5,0,1,0.1,1.4h-1.1l0-1h0c-0.4,0.7-0.9,1.1-1.7,1.1c-1.2,0-1.9-0.7-1.9-2.1V31H67v4.2
			c0,1,0.4,1.5,1.1,1.5c0.9,0,1.4-0.6,1.4-1.8V31h1.1L70.7,36.1L70.7,36.1z"/>
		<path fill="#1D1D1B" d="M72.3,32.4c0-0.5,0-1-0.1-1.4h1.1l0,1h0c0.4-0.7,0.9-1.1,1.7-1.1c1.2,0,1.9,0.7,1.9,2.1v4.5h-1.1v-4.2
			c0-1-0.4-1.5-1.1-1.5c-0.9,0-1.4,0.6-1.4,1.8v3.9h-1.1L72.3,32.4L72.3,32.4z"/>
		<path fill="#1D1D1B" d="M83.4,37.8c0,1.8-1.4,2.6-2.9,2.6c-0.6,0-1.5-0.2-1.9-0.4l0.1-1.1c0.5,0.3,1.2,0.6,1.8,0.6
			c1.3,0,1.9-0.8,1.9-1.9v-1h0c-0.4,0.7-1,1.1-1.8,1.1c-1.4,0-2.3-1.1-2.3-3.4c0-2.3,0.9-3.4,2.4-3.4c0.7,0,1.3,0.4,1.6,1h0l0-1h1.1
			c0,0.4-0.1,0.8-0.1,1.2L83.4,37.8L83.4,37.8z M80.8,36.8c1,0,1.5-0.8,1.5-2.5c0-1.6-0.5-2.5-1.5-2.5s-1.5,0.8-1.5,2.5
			C79.3,35.9,79.8,36.8,80.8,36.8z"/>
		<path fill="#1D1D1B" d="M84.6,36.3c0.5,0.3,1,0.5,1.6,0.5c0.8,0,1.3-0.4,1.3-0.9c0-0.4-0.2-0.8-0.9-1l-0.7-0.3
			c-1-0.4-1.3-0.8-1.3-1.7c0-1.1,0.8-1.9,2.1-1.9c0.5,0,1,0.1,1.4,0.2L88,32.1c-0.3-0.2-0.8-0.3-1.3-0.3c-0.7,0-1.1,0.4-1.1,0.9
			c0,0.5,0.4,0.8,1.1,1.1l0.4,0.2c0.8,0.3,1.3,0.9,1.3,1.7c0,1.1-0.6,2-2.1,2c-0.7,0-1.3-0.1-1.8-0.4L84.6,36.3z"/>
		<path fill="#1D1D1B" d="M89,31h1.2l1.5,5.5h0l1.5-5.5h1.2l-2,6.5H91L89,31z"/>
		<path fill="#1D1D1B" d="M96.1,34.6c0,1.5,0.6,2.2,1.8,2.2c0.5,0,1.2-0.3,1.5-0.5l0.1,1c-0.5,0.2-1.2,0.4-1.9,0.4
			c-1.8,0-2.7-1.3-2.7-3.4c0-2.1,0.9-3.4,2.6-3.4c1.5,0,2.3,1.2,2.3,3.1v0.6L96.1,34.6L96.1,34.6z M98.8,33.8c0-1.4-0.4-2-1.3-2
			c-0.7,0-1.3,0.5-1.4,2H98.8z"/>
		<path fill="#1D1D1B" d="M101.1,32.4c0-0.5,0-1-0.1-1.4h1.1l0,1h0c0.4-0.8,0.9-1.1,1.9-1.1V32c-0.1,0-0.3,0-0.4,0
			c-0.8,0-1.5,0.7-1.5,2.1v3.5h-1.1V32.4L101.1,32.4z"/>
		<path fill="#1D1D1B" d="M105.8,34.6c0,1.5,0.6,2.2,1.8,2.2c0.5,0,1.2-0.3,1.5-0.5l0.1,1c-0.5,0.2-1.2,0.4-1.9,0.4
			c-1.8,0-2.7-1.3-2.7-3.4c0-2.1,0.9-3.4,2.6-3.4c1.5,0,2.3,1.2,2.3,3.1v0.6L105.8,34.6L105.8,34.6z M108.5,33.8c0-1.4-0.4-2-1.3-2
			c-0.7,0-1.3,0.5-1.4,2H108.5z"/>
		<path fill="#1D1D1B" d="M112,28.3v1.3h-1.2v-1.3H112z M110.9,31h1.1v6.5h-1.1V31z"/>
		<path fill="#1D1D1B" d="M113.7,32.4c0-0.5,0-1-0.1-1.4h1.1l0,1h0c0.4-0.7,0.9-1.1,1.7-1.1c1.2,0,2,0.7,2,2.1v4.5h-1.1v-4.2
			c0-1-0.4-1.5-1.1-1.5c-0.9,0-1.4,0.6-1.4,1.8v3.9h-1.1L113.7,32.4L113.7,32.4z"/>
		<path fill="#1D1D1B" d="M121.2,28.3v1.3H120v-1.3H121.2z M120.1,31h1.1v6.5h-1.1V31z"/>
		<path fill="#1D1D1B" d="M127.7,37.8c0,1.8-1.4,2.6-2.9,2.6c-0.6,0-1.5-0.2-1.9-0.4l0.1-1.1c0.5,0.3,1.2,0.6,1.8,0.6
			c1.3,0,1.9-0.8,1.9-1.9v-1h0c-0.4,0.7-1,1.1-1.8,1.1c-1.4,0-2.3-1.1-2.3-3.4c0-2.3,0.9-3.4,2.4-3.4c0.7,0,1.3,0.4,1.6,1h0l0-1h1.1
			c0,0.4-0.1,0.8-0.1,1.2L127.7,37.8L127.7,37.8z M125.1,36.8c1,0,1.5-0.8,1.5-2.5c0-1.6-0.5-2.5-1.5-2.5c-1,0-1.5,0.8-1.5,2.5
			C123.7,35.9,124.1,36.8,125.1,36.8z"/>
		<path fill="#1D1D1B" d="M133.9,36.1c0,0.5,0,1,0.1,1.4h-1.1l0-1h0c-0.4,0.7-0.9,1.1-1.7,1.1c-1.2,0-1.9-0.7-1.9-2.1V31h1.1v4.2
			c0,1,0.4,1.5,1.1,1.5c0.9,0,1.4-0.6,1.4-1.8V31h1.1L133.9,36.1L133.9,36.1z"/>
		<path fill="#1D1D1B" d="M135.5,32.4c0-0.5,0-1-0.1-1.4h1.1l0,1h0c0.4-0.7,0.9-1.1,1.7-1.1c1.2,0,2,0.7,2,2.1v4.5h-1.1v-4.2
			c0-1-0.4-1.5-1.1-1.5c-0.9,0-1.4,0.6-1.4,1.8v3.9h-1.1L135.5,32.4L135.5,32.4z"/>
		<path fill="#1D1D1B" d="M146.6,37.8c0,1.8-1.4,2.6-2.9,2.6c-0.6,0-1.5-0.2-2-0.4l0.1-1.1c0.5,0.3,1.2,0.6,1.8,0.6
			c1.3,0,1.9-0.8,1.9-1.9v-1h0c-0.4,0.7-1,1.1-1.8,1.1c-1.4,0-2.3-1.1-2.3-3.4c0-2.3,0.9-3.4,2.4-3.4c0.7,0,1.3,0.4,1.6,1h0l0-1h1.1
			c0,0.4-0.1,0.8-0.1,1.2L146.6,37.8L146.6,37.8z M144,36.8c1,0,1.5-0.8,1.5-2.5c0-1.6-0.5-2.5-1.5-2.5c-1,0-1.5,0.8-1.5,2.5
			C142.6,35.9,143,36.8,144,36.8z"/>
		<path fill="#1D1D1B" d="M151.5,28.6h4.1v1h-2.9v2.9h2.8v1h-2.8v4.2h-1.2V28.6z"/>
		<path fill="#1D1D1B" d="M157.2,34.6c0,1.5,0.6,2.2,1.8,2.2c0.5,0,1.2-0.3,1.5-0.5l0.1,1c-0.5,0.2-1.2,0.4-1.9,0.4
			c-1.8,0-2.7-1.3-2.7-3.4c0-2.1,0.9-3.4,2.6-3.4c1.5,0,2.3,1.2,2.3,3.1v0.6L157.2,34.6L157.2,34.6z M159.8,33.8c0-1.4-0.4-2-1.3-2
			c-0.7,0-1.3,0.5-1.4,2H159.8z"/>
		<path fill="#1D1D1B" d="M163.4,28.3v1.3h-1.2v-1.3H163.4z M162.3,31h1.1v6.5h-1.1V31z"/>
		<path fill="#1D1D1B" d="M165.1,32.4c0-0.5,0-1-0.1-1.4h1.1l0,1h0c0.4-0.7,0.9-1.1,1.7-1.1c1.2,0,1.9,0.7,1.9,2.1v4.5h-1.1v-4.2
			c0-1-0.4-1.5-1.1-1.5c-0.9,0-1.4,0.6-1.4,1.8v3.9h-1.1L165.1,32.4L165.1,32.4z"/>
		<path fill="#1D1D1B" d="M171.4,32.4c0-0.5,0-1-0.1-1.4h1.1l0,1h0c0.4-0.7,0.9-1.1,1.6-1.1c0.7,0,1.2,0.4,1.6,1
			c0.4-0.6,0.9-1,1.6-1c1.2,0,1.9,0.7,1.9,2.1v4.5h-1.1v-4.5c0-0.8-0.4-1.2-1-1.2c-0.8,0-1.3,0.5-1.3,1.7v4h-1.1v-4.5
			c0-0.8-0.4-1.2-1-1.2c-0.8,0-1.3,0.5-1.3,1.7v4h-1.1L171.4,32.4L171.4,32.4z"/>
		<path fill="#1D1D1B" d="M181.6,34.6c0,1.5,0.6,2.2,1.8,2.2c0.5,0,1.2-0.3,1.5-0.5l0.1,1c-0.5,0.2-1.2,0.4-1.9,0.4
			c-1.8,0-2.7-1.3-2.7-3.4c0-2.1,0.9-3.4,2.6-3.4c1.5,0,2.3,1.2,2.3,3.1v0.6L181.6,34.6L181.6,34.6z M184.3,33.8c0-1.4-0.4-2-1.3-2
			c-0.7,0-1.3,0.5-1.4,2H184.3z"/>
		<path fill="#1D1D1B" d="M190.6,32.1c-0.4-0.2-0.8-0.3-1.3-0.3c-1.1,0-1.8,0.7-1.8,2.5c0,1.5,0.7,2.4,1.8,2.4c0.5,0,1-0.2,1.3-0.3
			l0.1,1c-0.3,0.1-0.9,0.3-1.4,0.3c-2,0-3-1.5-3-3.3c0-2.1,1.1-3.4,3-3.4c0.5,0,1,0.1,1.3,0.3L190.6,32.1z"/>
		<path fill="#1D1D1B" d="M191.7,27.9h1.1v4h0c0.3-0.6,0.9-1,1.6-1c1.2,0,1.9,0.7,1.9,2.1v4.5h-1.1v-4.2c0-1-0.4-1.5-1.1-1.5
			c-0.9,0-1.4,0.6-1.4,1.8v3.9h-1.1L191.7,27.9L191.7,27.9z"/>
		<path fill="#1D1D1B" d="M198.3,31.5c0.5-0.3,1.2-0.5,1.9-0.5c1,0,1.6,0.4,1.8,0.6c0.3,0.3,0.6,0.7,0.6,1.6v3.4c0,0.4,0,0.8,0.1,1
			h-1l-0.1-0.9h0c-0.3,0.5-0.9,1-1.9,1c-1.1,0-1.9-0.6-1.9-1.9c0-1.3,0.9-2.2,3.1-2.2h0.6v-0.3c0-0.5,0-0.8-0.2-1.1
			c-0.2-0.3-0.7-0.4-1.1-0.4c-0.7,0-1.3,0.3-1.7,0.7L198.3,31.5z M201.5,34.3c-0.2,0-0.5,0-0.8,0c-1.3,0-1.9,0.6-1.9,1.4
			c0,0.7,0.4,1.1,1.1,1.1c1,0,1.6-0.8,1.6-1.7L201.5,34.3L201.5,34.3z"/>
		<path fill="#1D1D1B" d="M204.1,32.4c0-0.5,0-1-0.1-1.4h1.1l0,1h0c0.4-0.7,0.9-1.1,1.7-1.1c1.2,0,1.9,0.7,1.9,2.1v4.5h-1.1v-4.2
			c0-1-0.4-1.5-1.1-1.5c-0.9,0-1.4,0.6-1.4,1.8v3.9h-1.1L204.1,32.4L204.1,32.4z"/>
		<path fill="#1D1D1B" d="M211.7,28.3v1.3h-1.2v-1.3H211.7z M210.5,31h1.1v6.5h-1.1V31z"/>
		<path fill="#1D1D1B" d="M216.7,31h1.3l-2.6,2.9l2.9,3.6h-1.4l-2.4-3.3h0v3.3h-1.1v-9.6h1.1v5.7L216.7,31z"/>
		<path fill="#1D1D1B" d="M219.3,36.1h1.2l-0.9,3h-1L219.3,36.1z"/>
		<path fill="#1D1D1B" d="M37.7,44.1c2,0,3.3,1.7,3.3,4.5c0,3.1-1.3,4.7-3.4,4.7c-2,0-3.3-1.7-3.3-4.5
			C34.3,45.6,35.5,44.1,37.7,44.1z M37.6,52.3c1.2,0,2.2-1,2.2-3.7c0-1.8-0.6-3.6-2.1-3.6c-1.2,0-2.2,1-2.2,3.7
			C35.5,50.5,36,52.3,37.6,52.3z"/>
		<path fill="#1D1D1B" d="M42.3,47.8c0-0.4,0-0.8-0.1-1.2h1.1l0,1h0c0.3-0.5,0.8-1.1,1.8-1.1c1.4,0,2.3,1.1,2.3,3.4
			c0,2.3-0.9,3.4-2.3,3.4c-0.8,0-1.3-0.3-1.7-1h0v3.7h-1.1L42.3,47.8L42.3,47.8z M44.9,52.3c1,0,1.5-0.8,1.5-2.5
			c0-1.6-0.5-2.5-1.5-2.5c-1,0-1.5,0.8-1.5,2.5C43.4,51.5,43.9,52.3,44.9,52.3z"/>
		<path fill="#1D1D1B" d="M51.7,53c-0.3,0.1-0.6,0.2-0.9,0.2c-1,0-1.5-0.4-1.5-1.6v-4.2h-1.1v-0.9h1.1v-1.3l1.1-0.3v1.7h1.4v0.9
			h-1.4v3.9c0,0.7,0.2,1,0.7,1c0.3,0,0.5-0.1,0.7-0.2L51.7,53L51.7,53z"/>
		<path fill="#1D1D1B" d="M53.9,43.9v1.3h-1.2v-1.3H53.9z M52.7,46.6h1.1v6.5h-1.1V46.6z"/>
		<path fill="#1D1D1B" d="M58.9,46.6h1.3l-2.6,2.9l2.9,3.6h-1.4l-2.4-3.3h0v3.3h-1.1v-9.6h1.1v5.7L58.9,46.6z"/>
		<path fill="#1D1D1B" d="M69.2,51.7c0,0.5,0,0.9,0.1,1.4h-1.1l0-1h0c-0.4,0.7-0.9,1.1-1.7,1.1c-1.2,0-2-0.7-2-2.1v-4.5h1.1v4.2
			c0,1,0.4,1.5,1.1,1.5c0.9,0,1.4-0.6,1.4-1.8v-3.9h1.1L69.2,51.7L69.2,51.7z"/>
		<path fill="#1D1D1B" d="M70.8,48c0-0.5,0-1-0.1-1.4h1.1l0,1h0c0.4-0.7,0.9-1.1,1.7-1.1c1.2,0,1.9,0.7,1.9,2.1v4.5h-1.1v-4.2
			c0-1-0.4-1.5-1.1-1.5c-0.9,0-1.4,0.6-1.4,1.8v3.9h-1.1L70.8,48L70.8,48z"/>
		<path fill="#1D1D1B" d="M81.9,51.9c0,0.4,0,0.8,0.1,1.2h-1.1l0-1h0c-0.3,0.5-0.8,1.1-1.8,1.1c-1.4,0-2.3-1.1-2.3-3.4
			c0-2.3,0.9-3.4,2.3-3.4c0.8,0,1.3,0.3,1.7,1h0v-4h1.1L81.9,51.9L81.9,51.9z M79.3,47.3c-1,0-1.5,0.8-1.5,2.5
			c0,1.6,0.5,2.5,1.5,2.5c1,0,1.5-0.8,1.5-2.5C80.8,48.2,80.3,47.3,79.3,47.3z"/>
		<path fill="#1D1D1B" d="M86.7,44.1h1.8l2.3,7.1h0l2.3-7.1h1.7v9h-1.1v-7.7h0l-2.6,7.7h-0.8l-2.5-7.7h0v7.7h-1.1V44.1L86.7,44.1z"
			/>
		<path fill="#1D1D1B" d="M97.5,50.2c0,1.5,0.6,2.2,1.8,2.2c0.5,0,1.2-0.3,1.5-0.5l0.1,1c-0.5,0.2-1.2,0.4-1.9,0.4
			c-1.8,0-2.7-1.3-2.7-3.4c0-2.1,0.9-3.4,2.6-3.4c1.5,0,2.3,1.2,2.3,3.1v0.6L97.5,50.2L97.5,50.2z M100.2,49.3c0-1.4-0.4-2-1.3-2
			c-0.7,0-1.3,0.5-1.4,2H100.2z"/>
		<path fill="#1D1D1B" d="M107.3,51.9c0,0.4,0,0.8,0.1,1.2h-1.1l0-1h0c-0.3,0.5-0.8,1.1-1.8,1.1c-1.4,0-2.3-1.1-2.3-3.4
			c0-2.3,0.9-3.4,2.3-3.4c0.8,0,1.3,0.3,1.7,1h0v-4h1.1V51.9L107.3,51.9z M104.8,47.3c-1,0-1.5,0.8-1.5,2.5c0,1.6,0.5,2.5,1.5,2.5
			c1,0,1.5-0.8,1.5-2.5C106.2,48.2,105.8,47.3,104.8,47.3z"/>
		<path fill="#1D1D1B" d="M110.1,43.9v1.3h-1.2v-1.3H110.1z M108.9,46.6h1.1v6.5h-1.1V46.6z"/>
		<path fill="#1D1D1B" d="M115.5,46.6v1l-3.1,4.6h3.2v0.9h-4.3v-1l3.1-4.6h-3v-0.9C111.4,46.6,115.5,46.6,115.5,46.6z"/>
		<path fill="#1D1D1B" d="M118.1,43.9v1.3h-1.2v-1.3H118.1z M116.9,46.6h1.1v6.5h-1.1V46.6z"/>
		<path fill="#1D1D1B" d="M119.7,48c0-0.5,0-1-0.1-1.4h1.1l0,1h0c0.4-0.7,0.9-1.1,1.7-1.1c1.2,0,2,0.7,2,2.1v4.5h-1.1v-4.2
			c0-1-0.4-1.5-1.1-1.5c-0.9,0-1.4,0.6-1.4,1.8v3.9h-1.1L119.7,48L119.7,48z"/>
		<path fill="#1D1D1B" d="M129,53c-0.3,0.1-0.6,0.2-0.9,0.2c-1,0-1.5-0.4-1.5-1.6v-4.2h-1.1v-0.9h1.1v-1.3l1.1-0.3v1.7h1.4v0.9h-1.4
			v3.9c0,0.7,0.2,1,0.7,1c0.3,0,0.5-0.1,0.7-0.2L129,53L129,53z"/>
		<path fill="#1D1D1B" d="M130.7,50.2c0,1.5,0.6,2.2,1.8,2.2c0.5,0,1.2-0.3,1.5-0.5l0.1,1c-0.5,0.2-1.2,0.4-1.9,0.4
			c-1.8,0-2.7-1.3-2.7-3.4c0-2.1,0.9-3.4,2.6-3.4c1.5,0,2.3,1.2,2.3,3.1v0.6L130.7,50.2L130.7,50.2z M133.4,49.3c0-1.4-0.4-2-1.3-2
			c-0.7,0-1.3,0.5-1.4,2H133.4z"/>
		<path fill="#1D1D1B" d="M139.6,47.7c-0.4-0.2-0.8-0.3-1.3-0.3c-1.1,0-1.8,0.7-1.8,2.5c0,1.5,0.7,2.4,1.8,2.4c0.5,0,1-0.2,1.3-0.3
			l0.1,1c-0.3,0.1-0.9,0.3-1.4,0.3c-2,0-3-1.5-3-3.3c0-2.1,1.1-3.4,3-3.4c0.5,0,1,0.1,1.3,0.3L139.6,47.7z"/>
		<path fill="#1D1D1B" d="M140.8,43.5h1.1v4h0c0.3-0.6,0.9-1,1.6-1c1.2,0,1.9,0.7,1.9,2.1v4.5h-1.1v-4.2c0-1-0.4-1.5-1.1-1.5
			c-0.9,0-1.4,0.6-1.4,1.8v3.9h-1.1L140.8,43.5L140.8,43.5z"/>
		<path fill="#1D1D1B" d="M147.1,48c0-0.5,0-1-0.1-1.4h1.1l0,1h0c0.4-0.7,0.9-1.1,1.7-1.1c1.2,0,2,0.7,2,2.1v4.5h-1.1v-4.2
			c0-1-0.4-1.5-1.1-1.5c-0.9,0-1.4,0.6-1.4,1.8v3.9h-1.1L147.1,48L147.1,48z"/>
		<path fill="#1D1D1B" d="M154.7,43.9v1.3h-1.2v-1.3H154.7z M153.5,46.6h1.1v6.5h-1.1V46.6z"/>
		<path fill="#1D1D1B" d="M159.7,46.6h1.3l-2.6,2.9l2.9,3.6h-1.4l-2.4-3.3h0v3.3h-1.1v-9.6h1.1v5.7L159.7,46.6z"/>
		<path fill="#1D1D1B" d="M166.1,50.2c0,1.5,0.6,2.2,1.8,2.2c0.5,0,1.2-0.3,1.5-0.5l0.1,1c-0.5,0.2-1.2,0.4-1.9,0.4
			c-1.8,0-2.7-1.3-2.7-3.4c0-2.1,0.9-3.4,2.6-3.4c1.5,0,2.3,1.2,2.3,3.1v0.6L166.1,50.2L166.1,50.2z M168.8,49.3c0-1.4-0.4-2-1.3-2
			c-0.7,0-1.3,0.5-1.4,2H168.8z"/>
		<path fill="#1D1D1B" d="M170.8,51.7h1.3v1.4h-1.3V51.7z"/>
		<path fill="#1D1D1B" d="M175.4,44.1h1.3l2.1,7.3h0l2.2-7.3h1.2l-2.9,9h-1.2L175.4,44.1z"/>
		<path fill="#1D1D1B" d="M181.8,51.7h1.3v1.4h-1.3V51.7z"/>
	</g>
</g>
</svg>
