<?xml version="1.0" encoding="UTF-8"?>
<svg width="13px" height="13px" viewBox="0 0 13 13" version="1.1" xmlns="http://www.w3.org/2000/svg" xmlns:xlink="http://www.w3.org/1999/xlink">
    <!-- Generator: Sketch 56.3 (81716) - https://sketch.com -->
    <title></title>
    <desc>Created with Sketch.</desc>
    <g id="Symbols" stroke="none" stroke-width="1" fill="none" fill-rule="evenodd">
        <g id="menu/main-navi-eng" transform="translate(-1140.000000, -22.000000)" fill="#575756" fill-rule="nonzero">
            <path d="M1149,27.4999893 C1149,25.5703036 1147.4297,23.9999893 1145.5,23.9999893 C1143.57032,23.9999893 1142,25.5703036 1142,27.4999893 C1142,29.4296832 1143.57032,30.9999893 1145.5,30.9999893 C1147.4297,30.9999893 1149,29.4296832 1149,27.4999893 Z M1153.00002,34.0000012 C1153.00002,34.5468768 1152.54689,35.0000024 1152.00001,35.0000024 C1151.73439,35.0000024 1151.47658,34.8906273 1151.29689,34.703127 L1148.6172,32.0312488 C1147.70313,32.6640621 1146.60938,33 1145.5,33 C1142.46094,33 1140,30.5390596 1140,27.4999869 C1140,24.4609273 1142.46094,21.9999869 1145.5,21.9999869 C1148.53907,21.9999869 1151.00001,24.4609273 1151.00001,27.4999869 C1151.00001,28.6093698 1150.66408,29.7031211 1150.03126,30.6171847 L1152.71095,33.2968754 C1152.89064,33.4765631 1153.00002,33.7343759 1153.00002,34.0000012 Z" id=""></path>
        </g>
    </g>
</svg>