<?xml version="1.0" encoding="utf-8"?>
<!-- Generator: Adobe Illustrator 16.0.0, SVG Export Plug-In . SVG Version: 6.00 Build 0)  -->
<!DOCTYPE svg PUBLIC "-//W3C//DTD SVG 1.1//EN" "http://www.w3.org/Graphics/SVG/1.1/DTD/svg11.dtd">
<svg version="1.1" id="Layer_1" xmlns="http://www.w3.org/2000/svg" xmlns:xlink="http://www.w3.org/1999/xlink" x="0px" y="0px"
	 width="210px" height="60px" viewBox="0 0 210 60" enable-background="new 0 0 210 60" xml:space="preserve">
<g>
	<g>
		<linearGradient id="SVGID_1_" gradientUnits="userSpaceOnUse" x1="20.6216" y1="-1.29" x2="21.3621" y2="29.4392">
			<stop  offset="0" style="stop-color:#00ADE4"/>
			<stop  offset="1" style="stop-color:#005FAC"/>
		</linearGradient>
		<path fill="url(#SVGID_1_)" d="M23.104,39.999c0.953,0.082,1.822,0.03,2.613-0.155c0.785-0.188,1.468-0.47,2.049-0.841
			c0.583-0.372,1.06-0.871,1.433-1.491c0.372-0.622,0.622-1.369,0.747-2.239c0-0.745-0.125-1.451-0.375-2.113
			c-0.249-0.662-0.624-1.308-1.118-1.931c-0.498-0.618-1.123-1.198-1.865-1.737c-0.746-0.54-1.598-1.06-2.552-1.557
			c-0.165-0.081-0.332-0.165-0.497-0.248c-0.164-0.082-0.333-0.164-0.497-0.249c-0.165-0.083-0.333-0.165-0.498-0.248
			c-0.168-0.084-0.332-0.165-0.497-0.249c-0.042,0-0.085,0-0.125,0c-0.043,0-0.073-0.012-0.093-0.031
			c-0.023-0.021-0.033-0.053-0.033-0.095c-1.741-0.827-3.408-1.697-5.006-2.61c-1.593-0.912-3.117-1.864-4.569-2.861
			c-1.409-0.994-2.479-2.155-3.202-3.481c-0.725-1.326-1.086-2.82-1.086-4.478c0-0.041,0-0.071,0-0.092c0-0.02,0-0.052,0-0.096
			c0-0.08,0-0.142,0-0.185c0-0.04,0-0.084,0-0.122c0-0.043,0-0.075,0-0.094c0-0.021,0-0.051,0-0.095
			c0-1.574,0.217-2.963,0.649-4.166c0.437-1.2,1.108-2.196,2.022-2.984c0.911-0.827,1.866-1.513,2.861-2.052
			c0.994-0.537,2.053-0.934,3.169-1.181c0.168-0.042,0.333-0.073,0.5-0.093c0.162-0.021,0.33-0.051,0.498-0.096
			c0.081,0,0.166-0.007,0.247-0.028c0.084-0.022,0.187-0.051,0.312-0.091c0.083,0,0.166-0.012,0.249-0.035
			c0.085-0.019,0.165-0.03,0.248-0.03l15.176-0.123v5.408H19.682c-0.871,0.083-1.646,0.249-2.332,0.496
			c-0.681,0.25-1.275,0.624-1.772,1.12c-0.498,0.498-0.87,1.017-1.12,1.556c-0.248,0.538-0.413,1.099-0.494,1.678
			c0,0.041-0.026,0.084-0.064,0.125c0,0.04,0,0.07,0,0.091c0,0.024,0,0.054,0,0.095s0,0.083,0,0.122c0,0.044,0,0.077,0,0.095
			c0,0.021,0,0.052,0,0.093c0,0.374,0.029,0.726,0.092,1.058c0.061,0.331,0.174,0.663,0.341,0.993
			c0.166,0.291,0.375,0.561,0.622,0.81c0.25,0.25,0.519,0.456,0.811,0.62c0.951,0.664,1.874,1.266,2.765,1.804
			c0.893,0.54,1.731,1.016,2.519,1.43c0.828,0.415,1.617,0.821,2.363,1.213c0.747,0.392,1.494,0.775,2.238,1.149
			c0.209,0.126,0.405,0.238,0.591,0.343c0.187,0.104,0.364,0.197,0.529,0.279c0.083,0.04,0.176,0.093,0.281,0.155
			c0.103,0.065,0.217,0.115,0.34,0.156c0.083,0.084,0.177,0.146,0.281,0.186c0.104,0.043,0.197,0.083,0.281,0.125
			c0.12,0.082,0.257,0.176,0.402,0.281c0.145,0.103,0.301,0.195,0.469,0.278c0.121,0.086,0.269,0.177,0.434,0.279
			c0.168,0.104,0.333,0.198,0.497,0.282c0.747,0.498,1.46,1.078,2.146,1.739c0.683,0.665,1.335,1.41,1.961,2.239
			c0.618,0.83,1.096,1.763,1.425,2.797c0.332,1.036,0.501,2.158,0.501,3.358c0,0.29-0.013,0.604-0.033,0.933
			c-0.022,0.332-0.052,0.666-0.091,0.995c-0.045,0.333-0.084,0.676-0.125,1.026c-0.042,0.354-0.106,0.693-0.188,1.027
			c-0.249,0.911-0.622,1.781-1.119,2.612c-0.498,0.826-1.139,1.613-1.927,2.359c-0.791,0.746-1.813,1.298-3.08,1.648
			c-1.264,0.354-2.785,0.529-4.569,0.529c-0.042,0-0.084,0-0.125,0c-0.042,0-0.083,0-0.125,0c-0.042,0-0.084,0-0.124,0
			c-0.041,0-0.085,0-0.125,0s-0.092,0-0.157,0c-0.06,0-0.112,0-0.156,0c-0.04,0-0.084,0-0.121,0c-0.042,0-0.083,0-0.124,0H7.431
			v-5.409H23.104z"/>
		<linearGradient id="SVGID_2_" gradientUnits="userSpaceOnUse" x1="52.2676" y1="-2.0518" x2="53.008" y2="28.6756">
			<stop  offset="0" style="stop-color:#00ADE4"/>
			<stop  offset="1" style="stop-color:#005FAC"/>
		</linearGradient>
		<path fill="url(#SVGID_2_)" d="M53.059,15.034c4.214,0,7.795,1.483,10.741,4.45c2.945,2.965,4.42,6.545,4.42,10.738
			c0,4.172-1.475,7.744-4.42,10.72c-2.946,2.978-6.527,4.467-10.741,4.467c-4.173,0-7.748-1.489-10.724-4.467
			c-2.977-2.976-4.463-6.548-4.463-10.72c0-4.214,1.486-7.799,4.463-10.755C45.311,16.511,48.886,15.034,53.059,15.034z
			 M46.079,23.241c-1.935,1.933-2.9,4.26-2.9,6.981c0,2.719,0.96,5.042,2.883,6.965c1.924,1.921,4.255,2.882,6.997,2.882
			c2.721,0,5.043-0.961,6.967-2.882c1.921-1.923,2.883-4.246,2.883-6.965c0-2.721-0.962-5.048-2.883-6.981
			c-1.923-1.933-4.246-2.898-6.967-2.898C50.339,20.342,48.012,21.308,46.079,23.241z"/>
		<linearGradient id="SVGID_3_" gradientUnits="userSpaceOnUse" x1="76.5498" y1="-2.6367" x2="77.2902" y2="28.0901">
			<stop  offset="0" style="stop-color:#00ADE4"/>
			<stop  offset="1" style="stop-color:#005FAC"/>
		</linearGradient>
		<path fill="url(#SVGID_3_)" d="M76.788,22.427v22.275h-5.185V22.427h-2.484v-5.185h2.484v-5.214
			c0.145-2.252,1.003-4.182,2.579-5.801c1.678-1.532,3.589-2.3,5.739-2.3c1.104,0,2.718,0.37,4.846,1.105L83.05,9.91
			c-1.472-0.634-2.444-0.952-2.916-0.952c-0.798,0-1.576,0.339-2.331,1.013c-0.637,0.634-0.972,1.403-1.016,2.302v4.969h5.032v5.185
			H76.788z"/>
		<linearGradient id="SVGID_4_" gradientUnits="userSpaceOnUse" x1="90.9028" y1="-2.9844" x2="91.6433" y2="27.7442">
			<stop  offset="0" style="stop-color:#00ADE4"/>
			<stop  offset="1" style="stop-color:#005FAC"/>
		</linearGradient>
		<path fill="url(#SVGID_4_)" d="M88.861,17.242V6.81h5.186v10.432h5v5.185h-5v22.275h-5.186V22.427h-5.003v-5.185H88.861z"/>
	</g>
	<linearGradient id="SVGID_5_" gradientUnits="userSpaceOnUse" x1="148.7227" y1="5.3452" x2="148.7227" y2="36.4428">
		<stop  offset="0" style="stop-color:#214C6A"/>
		<stop  offset="1" style="stop-color:#092939"/>
	</linearGradient>
	<path fill="url(#SVGID_5_)" d="M146.268,30.715c-0.005-0.151-0.022-0.297-0.022-0.448c0-2.72,0.964-5.042,2.886-6.965
		s4.255-2.882,6.996-2.882c2.549,0,4.745,0.855,6.591,2.542c0.124,0.112,0.251,0.219,0.374,0.34c0.981,0.982,1.712,2.071,2.19,3.262
		c0.468-2.075,1.352-3.991,2.618-5.734c0.019-0.024,0.032-0.049,0.049-0.076c-0.015-0.019-0.03-0.036-0.049-0.054V6.875h-5.183
		v9.678c-1.992-0.971-4.187-1.473-6.591-1.473c-4.174,0-7.748,1.488-10.725,4.464c-2.977,2.977-4.467,6.552-4.467,10.724v0.001
		c0,2.722-0.962,5.046-2.885,6.979c-1.921,1.934-4.243,2.899-6.966,2.899c-2.72,0-5.046-0.966-6.979-2.899
		c-1.933-1.934-2.9-4.261-2.9-6.98c0-2.72,0.961-5.042,2.887-6.965c1.922-1.923,4.252-2.882,6.993-2.882
		c2.723,0,5.045,0.959,6.966,2.882c0.985,0.982,1.709,2.069,2.192,3.258c0.474-2.098,1.369-4.043,2.67-5.803
		c-0.341-0.414-0.697-0.819-1.089-1.213c-2.945-2.976-6.525-4.464-10.739-4.464c-4.172,0-7.747,1.488-10.724,4.464
		c-2.975,2.977-4.466,6.552-4.466,10.724c0,4.214,1.491,7.797,4.466,10.754c2.977,2.955,6.552,4.433,10.724,4.433
		c4.214,0,7.794-1.483,10.739-4.45c2.84-2.856,4.299-6.292,4.399-10.288H146.268z M191.906,19.543
		c-2.945-2.976-6.524-4.464-10.736-4.464c-4.177,0-7.75,1.488-10.728,4.464c-2.837,2.837-4.307,6.224-4.438,10.146h-0.052
		c0.01,0.192,0.026,0.381,0.026,0.577c0,2.72-0.967,5.047-2.887,6.98s-4.242,2.899-6.965,2.899c-2.721,0-5.047-0.966-6.983-2.899
		c-0.986-0.988-1.721-2.082-2.2-3.276c-0.468,2.112-1.358,4.064-2.647,5.829c0.342,0.417,0.711,0.826,1.106,1.221
		c2.977,2.955,6.551,4.433,10.725,4.433c4.214,0,7.796-1.483,10.739-4.45c2.807-2.822,4.26-6.209,4.392-10.145h0.056
		c-0.009-0.198-0.026-0.39-0.026-0.592c0-2.72,0.961-5.042,2.884-6.965s4.256-2.882,6.999-2.882c2.72,0,5.041,0.959,6.96,2.882
		c1.925,1.923,2.888,4.245,2.888,6.965c0,2.72-0.963,5.047-2.888,6.98c-1.919,1.934-4.24,2.899-6.96,2.899
		c-2.724,0-5.051-0.966-6.985-2.899c-0.986-0.986-1.716-2.08-2.2-3.272c-0.467,2.113-1.359,4.063-2.648,5.827
		c0.345,0.417,0.711,0.825,1.106,1.219c2.978,2.955,6.551,4.433,10.728,4.433c4.212,0,7.791-1.483,10.736-4.45
		c2.946-2.964,4.419-6.545,4.419-10.736C196.325,26.095,194.853,22.52,191.906,19.543z M111.307,6.81h-5.186v10.432h-5v5.185h5
		v22.275h5.186V22.427h5.003v-5.185h-5.003V6.81z"/>
	<g>
		<g>
			<path fill="#808184" d="M56.29,50.81v6.992h-0.902V50.81H56.29z"/>
			<path fill="#808184" d="M62.303,51.576h-2.126V50.81h5.176v0.767h-2.137v6.226h-0.913V51.576z"/>
			<path fill="#808184" d="M74.417,56.701c0.407,0.25,0.998,0.455,1.62,0.455c0.922,0,1.461-0.486,1.461-1.191
				c0-0.654-0.373-1.026-1.317-1.391c-1.142-0.403-1.846-0.996-1.846-1.979c0-1.089,0.903-1.9,2.26-1.9
				c0.716,0,1.236,0.166,1.546,0.344l-0.25,0.736c-0.228-0.123-0.695-0.33-1.327-0.33c-0.955,0-1.317,0.568-1.317,1.045
				c0,0.653,0.426,0.975,1.39,1.348c1.181,0.458,1.784,1.027,1.784,2.056c0,1.078-0.798,2.021-2.447,2.021
				c-0.674,0-1.412-0.21-1.786-0.457L74.417,56.701z"/>
			<path fill="#808184" d="M88.737,54.232c0,2.406-1.461,3.682-3.246,3.682c-1.845,0-3.143-1.432-3.143-3.544
				c0-2.224,1.379-3.676,3.247-3.676C87.504,50.694,88.737,52.158,88.737,54.232z M83.313,54.346c0,1.496,0.81,2.831,2.229,2.831
				c1.434,0,2.24-1.317,2.24-2.901c0-1.39-0.725-2.845-2.229-2.845C84.06,51.431,83.313,52.812,83.313,54.346z"/>
			<path fill="#808184" d="M93.015,50.81h0.903v6.233h2.989v0.759h-3.892V50.81z"/>
			<path fill="#808184" d="M101.546,50.81v4.138c0,1.569,0.694,2.229,1.627,2.229c1.037,0,1.702-0.684,1.702-2.229V50.81h0.912
				v4.077c0,2.144-1.13,3.027-2.645,3.027c-1.43,0-2.51-0.821-2.51-2.986V50.81H101.546z"/>
			<path fill="#808184" d="M111.788,51.576h-2.129V50.81h5.178v0.767H112.7v6.226h-0.912V51.576z"/>
			<path fill="#808184" d="M119.622,50.81v6.992h-0.901V50.81H119.622z"/>
			<path fill="#808184" d="M130.282,54.232c0,2.406-1.463,3.682-3.245,3.682c-1.848,0-3.143-1.432-3.143-3.544
				c0-2.224,1.38-3.676,3.246-3.676C129.049,50.694,130.282,52.158,130.282,54.232z M124.858,54.346
				c0,1.496,0.809,2.831,2.229,2.831c1.433,0,2.24-1.317,2.24-2.901c0-1.39-0.727-2.845-2.231-2.845
				C125.606,51.431,124.858,52.812,124.858,54.346z"/>
			<path fill="#808184" d="M134.56,57.802V50.81h0.984l2.24,3.536c0.519,0.819,0.925,1.556,1.257,2.271l0.022-0.009
				c-0.088-0.936-0.105-1.786-0.105-2.874V50.81h0.851v6.992h-0.914l-2.221-3.55c-0.486-0.776-0.953-1.576-1.306-2.332l-0.032,0.011
				c0.055,0.881,0.073,1.722,0.073,2.883v2.988H134.56z"/>
			<path fill="#808184" d="M144.365,56.701c0.405,0.25,0.997,0.455,1.619,0.455c0.921,0,1.461-0.486,1.461-1.191
				c0-0.654-0.372-1.026-1.316-1.391c-1.141-0.403-1.846-0.996-1.846-1.979c0-1.089,0.901-1.9,2.262-1.9
				c0.713,0,1.233,0.166,1.543,0.344l-0.248,0.736c-0.227-0.123-0.693-0.33-1.328-0.33c-0.954,0-1.316,0.568-1.316,1.045
				c0,0.653,0.425,0.975,1.39,1.348c1.181,0.458,1.783,1.027,1.783,2.056c0,1.078-0.798,2.021-2.447,2.021
				c-0.674,0-1.41-0.21-1.783-0.457L144.365,56.701z"/>
		</g>
		<polygon fill="#808184" points="151.534,53.38 194.353,54.353 151.534,55.38 		"/>
		<polygon fill="#808184" points="52.222,55.378 9.405,54.404 52.222,53.377 		"/>
	</g>
	<g>
		<linearGradient id="SVGID_6_" gradientUnits="userSpaceOnUse" x1="198.9219" y1="10.4033" x2="198.4932" y2="29.3728">
			<stop  offset="0" style="stop-color:#214C6A"/>
			<stop  offset="1" style="stop-color:#092939"/>
		</linearGradient>
		<path fill="url(#SVGID_6_)" d="M198.754,21.699c-0.619,0-1.198-0.11-1.736-0.329c-0.536-0.22-0.999-0.521-1.394-0.9
			c-0.391-0.377-0.695-0.83-0.914-1.361c-0.222-0.53-0.33-1.104-0.33-1.724c0-0.632,0.111-1.215,0.339-1.755
			c0.228-0.535,0.54-1.001,0.938-1.391c0.398-0.394,0.864-0.698,1.395-0.917c0.526-0.224,1.098-0.333,1.703-0.333
			c0.62,0,1.197,0.109,1.734,0.333c0.535,0.22,1,0.523,1.394,0.917c0.392,0.39,0.701,0.856,0.927,1.391
			c0.229,0.54,0.341,1.123,0.341,1.755c0,0.62-0.112,1.194-0.341,1.724c-0.226,0.531-0.54,0.984-0.937,1.361
			c-0.402,0.379-0.865,0.68-1.396,0.9C199.945,21.588,199.374,21.699,198.754,21.699z M198.754,13.877
			c-0.495,0-0.953,0.087-1.375,0.267c-0.418,0.18-0.781,0.425-1.09,0.734c-0.313,0.311-0.552,0.678-0.725,1.104
			c-0.174,0.427-0.258,0.893-0.258,1.402c0,0.497,0.084,0.952,0.258,1.373c0.173,0.419,0.412,0.785,0.725,1.093
			c0.309,0.311,0.672,0.555,1.09,0.734c0.422,0.179,0.88,0.268,1.375,0.268c0.497,0,0.954-0.089,1.374-0.268
			c0.417-0.179,0.783-0.423,1.093-0.734c0.309-0.308,0.555-0.674,0.729-1.093c0.183-0.42,0.272-0.876,0.272-1.373
			c0-0.509-0.09-0.976-0.272-1.402c-0.174-0.427-0.42-0.793-0.729-1.104c-0.31-0.31-0.676-0.554-1.093-0.734
			C199.708,13.964,199.251,13.877,198.754,13.877z M198.856,17.84h-0.825v2.022h-0.907v-4.997h2.041
			c0.427,0,0.788,0.133,1.088,0.394c0.292,0.261,0.441,0.611,0.441,1.052c0,0.317-0.082,0.592-0.248,0.827
			c-0.166,0.233-0.393,0.419-0.682,0.555l1.095,2.168h-1.031L198.856,17.84z M198.031,15.715v1.257h1.011
			c0.221,0,0.401-0.06,0.536-0.174c0.139-0.119,0.206-0.28,0.206-0.486c0-0.397-0.231-0.597-0.7-0.597H198.031z"/>
	</g>
</g>
</svg>
